<svg width="297" height="230" xmlns="http://www.w3.org/2000/svg">
 <g>
  <title>background</title>
  <rect x="-1" y="-1" width="299" height="232" id="canvas_background" fill="#d0d35f"/>
 </g>

 <g>
  <title>Layer 1</title>
  <rect transform="rotate(-90.1419906616211 148.49998474121097,115.86766052246097) " x="32.999985" width="231" height="297" fill="#d0d35f" id="svg_3" y="-32.632336"/>
  <polyline stroke="null" transform="rotate(-90.24974060058594 148.49549865722656,114.83480072021484) " points="262.9626290462968,-33.665211434531166 262.9626290462968,263.3348152683497 34.028360597209485,263.3348152683497 " fill="#618E49" id="svg_5"/>
  <g transform="rotate(-90.1419906616211 148.49998474121097,115.86766052246097) " id="svg_6">
   <path d="m247.499985,250.367665l-198,0c-1.381,0 -2.5,-1.119 -2.5,-2.5l0,-264c0,-1.381 1.119,-2.5 2.5,-2.5l198,0c1.381,0 2.5,1.119 2.5,2.5l0,264c0,1.381 -1.119,2.5 -2.5,2.5zm-195.5,-5l193,0l0,-259l-193,0l0,259z" fill="#FFFFFF" id="svg_7"/>
  </g>
  <g transform="rotate(-90.1419906616211 148.5,115.86766052246094) " id="svg_8">
   <path d="m247.499992,118.367658l-198,0c-1.381,0 -2.5,-1.119 -2.5,-2.5s1.119,-2.5 2.5,-2.5l198,0c1.381,0 2.5,1.119 2.5,2.5s-1.119,2.5 -2.5,2.5z" fill="#FFFFFF" id="svg_9"/>
  </g>
  <g transform="rotate(-90.1419906616211 148.49998474121097,115.86766052246097) " id="svg_10">
   <path d="m148.499985,151.367665c-19.575,0 -35.5,-15.925 -35.5,-35.5s15.925,-35.5 35.5,-35.5s35.5,15.925 35.5,35.5s-15.925,35.5 -35.5,35.5zm0,-66c-16.817,0 -30.5,13.683 -30.5,30.5s13.683,30.5 30.5,30.5s30.5,-13.683 30.5,-30.5s-13.683,-30.5 -30.5,-30.5z" fill="#FFFFFF" id="svg_11"/>
  </g>
  <g transform="rotate(-90.1419906616211 75.49987792968753,116.04856872558595) " id="svg_12">
   <path d="m75.499878,127.048902c-12.884,0 -24.78,-7.007 -31.047,-18.286c-0.67,-1.207 -0.235,-2.729 0.972,-3.399c1.203,-0.67 2.729,-0.235 3.399,0.972c5.385,9.692 15.607,15.713 26.676,15.713s21.291,-6.021 26.676,-15.714c0.671,-1.207 2.193,-1.642 3.399,-0.972c1.207,0.671 1.642,2.192 0.972,3.399c-6.267,11.28 -18.163,18.287 -31.047,18.287z" fill="#FFFFFF" id="svg_13"/>
  </g>
  <g transform="rotate(-90.1419906616211 222.50083923339844,115.68526458740232) " id="svg_14">
   <path d="m251.364823,126.684201c-0.878,0 -1.73,-0.464 -2.188,-1.286c-5.385,-9.692 -15.606,-15.714 -26.676,-15.714s-21.291,6.021 -26.676,15.714c-0.671,1.207 -2.193,1.643 -3.399,0.972c-1.207,-0.671 -1.642,-2.192 -0.972,-3.399c6.267,-11.279 18.163,-18.286 31.047,-18.286s24.78,7.007 31.047,18.286c0.67,1.207 0.235,2.729 -0.972,3.399c-0.383,0.213 -0.8,0.314 -1.211,0.314z" fill="#FFFFFF" id="svg_15"/>
  </g>
  <g transform="rotate(-90.1419906616211 41.25032043457034,116.13345336914065) " id="svg_16">
   <path d="m90.75032,143.38345l-99,0c-1.381,0 -2.5,-1.119 -2.5,-2.5l0,-49.5c0,-1.381 1.119,-2.5 2.5,-2.5s2.5,1.119 2.5,2.5l0,47l94,0l0,-47c0,-1.381 1.119,-2.5 2.5,-2.5s2.5,1.119 2.5,2.5l0,49.5c0,1.381 -1.119,2.5 -2.5,2.5z" fill="#FFFFFF" id="svg_17"/>
  </g>
  <g transform="rotate(-90.1419906616211 26.7303619384766,116.16943359375003) " id="svg_18">
   <path d="m59.730362,128.899435l-66,0c-1.381,0 -2.5,-1.119 -2.5,-2.5l0,-20.46c0,-1.381 1.119,-2.5 2.5,-2.5s2.5,1.119 2.5,2.5l0,17.96l61,0l0,-17.96c0,-1.381 1.119,-2.5 2.5,-2.5s2.5,1.119 2.5,2.5l0,20.46c0,1.381 -1.119,2.5 -2.5,2.5z" fill="#FFFFFF" id="svg_19"/>
  </g>
  <g transform="rotate(-90.1419906616211 270.2696228027344,115.56588745117189) " id="svg_20">
   <path d="m303.269615,128.295888c-1.381,0 -2.5,-1.119 -2.5,-2.5l0,-17.96l-61,0l0,17.96c0,1.381 -1.119,2.5 -2.5,2.5s-2.5,-1.119 -2.5,-2.5l0,-20.46c0,-1.381 1.119,-2.5 2.5,-2.5l66,0c1.381,0 2.5,1.119 2.5,2.5l0,20.46c0,1.381 -1.119,2.5 -2.5,2.5z" fill="#FFFFFF" id="svg_21"/>
  </g>
  <g transform="rotate(-90.1419906616211 255.74966430664065,115.60187530517575) " id="svg_22">
   <path d="m305.249657,142.85188c-1.381,0 -2.5,-1.119 -2.5,-2.5l0,-47l-94,0l0,47c0,1.381 -1.119,2.5 -2.5,2.5s-2.5,-1.119 -2.5,-2.5l0,-49.5c0,-1.381 1.119,-2.5 2.5,-2.5l99,0c1.381,0 2.5,1.119 2.5,2.5l0,49.5c0,1.381 -1.119,2.5 -2.5,2.5z" fill="#FFFFFF" id="svg_23"/>
  </g>
  <g id="svg_24"/>
  <g id="svg_25"/>
  <g id="svg_26"/>
  <g id="svg_27"/>
  <g id="svg_28"/>
  <g id="svg_29"/>
  <g id="svg_30"/>
  <g id="svg_31"/>
  <g id="svg_32"/>
  <g id="svg_33"/>
  <g id="svg_34"/>
  <g id="svg_35"/>
  <g id="svg_36"/>
  <g id="svg_37"/>
  <g id="svg_38"/>
  <rect opacity="0.38" id="svg_1" height="230" width="20" y="-0.381871" x="0.718129" stroke-width="1.5" fill="#fff"/>
  <rect opacity="0.38" id="svg_40" height="230" width="20" y="-0.381871" x="47.349762" stroke-width="1.5" fill="#fff"/>
  <rect opacity="0.38" id="svg_41" height="230" width="20" y="0.136258" x="99.680816" stroke-width="1.5" fill="#fff"/>
  <rect opacity="0.38" id="svg_42" height="230" width="20" y="-0.381871" x="176.882075" stroke-width="1.5" fill="#fff"/>
  <rect opacity="0.38" id="svg_43" height="230" width="20" y="-0.381871" x="223.513708" stroke-width="1.5" fill="#fff"/>
  <rect opacity="0.38" id="svg_44" height="230" width="20" y="0.136258" x="275.844763" stroke-width="1.5" fill="#fff"/>
 </g>
</svg>