<svg width="297" height="230" xmlns="http://www.w3.org/2000/svg">

 <g>
  <title>background</title>
  <rect fill="none" id="canvas_background" height="232" width="299" y="-1" x="-1"/>
 </g>
 <g>
  <title>Layer 1</title>
  <g transform="rotate(-90.1419906616211 148.5,115.86766052246094) " id="svg_1">
   <g id="svg_2">
    <rect y="-32.632351" id="svg_3" fill="#6AAC4B" height="297" width="231" x="33"/>
   </g>
   <g id="svg_4">
    <polyline id="svg_5" fill="#618E49" points="264,-32.63235092163086 264,264.3676452636719 33,264.3676452636719 "/>
   </g>
   <g id="svg_6">
    <path id="svg_7" fill="#FFFFFF" d="m247.5,250.367649l-198,0c-1.381,0 -2.5,-1.119 -2.5,-2.5l0,-264c0,-1.381 1.119,-2.5 2.5,-2.5l198,0c1.381,0 2.5,1.119 2.5,2.5l0,264c0,1.381 -1.119,2.5 -2.5,2.5zm-195.5,-5l193,0l0,-259l-193,0l0,259z"/>
   </g>
   <g id="svg_8">
    <path id="svg_9" fill="#FFFFFF" d="m247.5,118.367649l-198,0c-1.381,0 -2.5,-1.119 -2.5,-2.5s1.119,-2.5 2.5,-2.5l198,0c1.381,0 2.5,1.119 2.5,2.5s-1.119,2.5 -2.5,2.5z"/>
   </g>
   <g id="svg_10">
    <path id="svg_11" fill="#FFFFFF" d="m148.5,151.367649c-19.575,0 -35.5,-15.925 -35.5,-35.5s15.925,-35.5 35.5,-35.5s35.5,15.925 35.5,35.5s-15.925,35.5 -35.5,35.5zm0,-66c-16.817,0 -30.5,13.683 -30.5,30.5s13.683,30.5 30.5,30.5s30.5,-13.683 30.5,-30.5s-13.683,-30.5 -30.5,-30.5z"/>
   </g>
   <g id="svg_12">
    <path id="svg_13" fill="#FFFFFF" d="m148.5,53.867649c-12.884,0 -24.78,-7.007 -31.047,-18.286c-0.67,-1.207 -0.235,-2.729 0.972,-3.399c1.203,-0.67 2.729,-0.235 3.399,0.972c5.385,9.692 15.607,15.713 26.676,15.713s21.291,-6.021 26.676,-15.714c0.671,-1.207 2.193,-1.642 3.399,-0.972c1.207,0.671 1.642,2.192 0.972,3.399c-6.267,11.28 -18.163,18.287 -31.047,18.287z"/>
   </g>
   <g id="svg_14">
    <path id="svg_15" fill="#FFFFFF" d="m177.363,200.867649c-0.878,0 -1.73,-0.464 -2.188,-1.286c-5.385,-9.692 -15.606,-15.714 -26.676,-15.714s-21.291,6.021 -26.676,15.714c-0.671,1.207 -2.193,1.643 -3.399,0.972c-1.207,-0.671 -1.642,-2.192 -0.972,-3.399c6.267,-11.279 18.163,-18.286 31.047,-18.286s24.78,7.007 31.047,18.286c0.67,1.207 0.235,2.729 -0.972,3.399c-0.383,0.213 -0.8,0.314 -1.211,0.314z"/>
   </g>
   <g id="svg_16">
    <path id="svg_17" fill="#FFFFFF" d="m198,35.867649l-99,0c-1.381,0 -2.5,-1.119 -2.5,-2.5l0,-49.5c0,-1.381 1.119,-2.5 2.5,-2.5s2.5,1.119 2.5,2.5l0,47l94,0l0,-47c0,-1.381 1.119,-2.5 2.5,-2.5s2.5,1.119 2.5,2.5l0,49.5c0,1.381 -1.119,2.5 -2.5,2.5z"/>
   </g>
   <g id="svg_18">
    <path id="svg_19" fill="#FFFFFF" d="m181.5,6.827649l-66,0c-1.381,0 -2.5,-1.119 -2.5,-2.5l0,-20.46c0,-1.381 1.119,-2.5 2.5,-2.5s2.5,1.119 2.5,2.5l0,17.96l61,0l0,-17.96c0,-1.381 1.119,-2.5 2.5,-2.5s2.5,1.119 2.5,2.5l0,20.46c0,1.381 -1.119,2.5 -2.5,2.5z"/>
   </g>
   <g id="svg_20">
    <path id="svg_21" fill="#FFFFFF" d="m181.5,250.367649c-1.381,0 -2.5,-1.119 -2.5,-2.5l0,-17.96l-61,0l0,17.96c0,1.381 -1.119,2.5 -2.5,2.5s-2.5,-1.119 -2.5,-2.5l0,-20.46c0,-1.381 1.119,-2.5 2.5,-2.5l66,0c1.381,0 2.5,1.119 2.5,2.5l0,20.46c0,1.381 -1.119,2.5 -2.5,2.5z"/>
   </g>
   <g id="svg_22">
    <path id="svg_23" fill="#FFFFFF" d="m198,250.367649c-1.381,0 -2.5,-1.119 -2.5,-2.5l0,-47l-94,0l0,47c0,1.381 -1.119,2.5 -2.5,2.5s-2.5,-1.119 -2.5,-2.5l0,-49.5c0,-1.381 1.119,-2.5 2.5,-2.5l99,0c1.381,0 2.5,1.119 2.5,2.5l0,49.5c0,1.381 -1.119,2.5 -2.5,2.5z"/>
   </g>
  </g>
  <g id="svg_24"/>
  <g id="svg_25"/>
  <g id="svg_26"/>
  <g id="svg_27"/>
  <g id="svg_28"/>
  <g id="svg_29"/>
  <g id="svg_30"/>
  <g id="svg_31"/>
  <g id="svg_32"/>
  <g id="svg_33"/>
  <g id="svg_34"/>
  <g id="svg_35"/>
  <g id="svg_36"/>
  <g id="svg_37"/>
  <g id="svg_38"/>
 </g>
</svg>